<svg id="graph" width="506" height="453" viewBox="0 0 506 453" fill="none" xmlns="http://www.w3.org/2000/svg">
<g id="group_graph"  data-group="graph">
    <path data-set="graph_slice" id="graph#0" data-active="false" d="M432.999 233.751C432.806 285.094 412.875 334.396 377.332 371.449L233 233L432.999 233.751Z" fill="#0F407A" stroke="#222428" stroke-width="4"/>
    <path data-set="graph_slice" id="graph#1" data-active="false" d="M377.82 370.939C348.69 401.522 310.626 422.098 269.083 429.718L233 233L377.82 370.939Z" fill="#1E5E9D" stroke="#222428" stroke-width="4"/>
    <path data-set="graph_slice" id="graph#2" data-active="false" d="M269.318 429.675C227.785 437.344 184.889 431.669 146.78 413.461L233 233L269.318 429.675Z" fill="#0866D6" stroke="#222428" stroke-width="4"/>
    <path data-set="graph_slice" id="graph#3" data-active="false" d="M146.805 413.473C100.902 391.549 65.0785 352.959 46.6245 305.555L233 233L146.805 413.473Z" fill="#2981E9" stroke="#222428" stroke-width="4"/>
    <path data-set="graph_slice" id="graph#4" data-active="false" d="M46.6617 305.65C35.1968 276.244 30.8541 244.542 33.9889 213.136C37.1236 181.73 47.6467 151.512 64.6978 124.952C81.7489 98.3921 104.844 76.2449 132.094 60.3209C159.345 44.397 189.977 35.1485 221.487 33.3316L233 233L46.6617 305.65Z" fill="#009CF3" stroke="#222428" stroke-width="4"/>
    <path data-set="graph_slice" id="graph#5" data-active="false" d="M221.391 33.3372C242.343 32.119 263.356 34.2062 283.659 39.5221L233 233L221.391 33.3372Z" fill="#A5D5F0" stroke="#222428" stroke-width="4"/>
    <path data-set="graph_slice" id="graph#6" data-active="false" d="M283.484 39.4764C332.706 52.3168 375.186 83.4309 402.277 126.486L233 233L283.484 39.4764Z" fill="#485462" stroke="#222428" stroke-width="4"/>
    <path data-set="graph_slice" id="graph#7" data-active="false" d="M402.276 126.484C415.701 147.819 424.972 171.5 429.6 196.279L233 233L402.276 126.484Z" fill="#32323B" stroke="#222428" stroke-width="4"/>
    <path data-set="graph_slice" id="graph#8" data-active="false" d="M429.598 196.267C431.907 208.629 433.046 221.181 432.999 233.756L233 233L429.598 196.267Z" fill="#00C8F3" stroke="#222428" stroke-width="4"/>
</g>

<circle cx="88" cy="139" r="4" fill="white"/>
<circle cx="251" cy="56" r="4" fill="white"/>
<circle cx="336" cy="91" r="4" fill="white"/>
<circle cx="400" cy="167" r="4" fill="white"/>
<circle cx="410" cy="217" r="4" fill="white"/>
<circle cx="396" cy="296" r="4" fill="white"/>
<circle cx="316" cy="389" r="4" fill="white"/>
<circle cx="212" cy="409" r="4" fill="white"/>
<circle cx="108" cy="353" r="4" fill="white"/>
<path d="M8.304 98.496C8.304 98.912 8.21867 99.2853 8.048 99.616C7.888 99.936 7.62667 100.208 7.264 100.432C6.90133 100.645 6.42667 100.811 5.84 100.928C5.25333 101.045 4.544 101.104 3.712 101.104V100.048H4.112C4.63467 100.048 5.056 100.005 5.376 99.92C5.696 99.824 5.94133 99.696 6.112 99.536C6.29333 99.376 6.41067 99.2107 6.464 99.04C6.528 98.8587 6.56 98.6827 6.56 98.512C6.56 98.0213 6.4 97.6373 6.08 97.36C5.76 97.0827 5.29067 96.944 4.672 96.944C4.02133 96.944 3.52 97.0987 3.168 97.408C2.82667 97.7173 2.608 98.144 2.512 98.688H0.8C0.896 98.0267 1.10933 97.4613 1.44 96.992C1.77067 96.512 2.208 96.144 2.752 95.888C3.296 95.632 3.94133 95.504 4.688 95.504C5.47733 95.504 6.13867 95.6373 6.672 95.904C7.20533 96.1707 7.61067 96.528 7.888 96.976C8.16533 97.424 8.304 97.9307 8.304 98.496ZM8.592 103.104C8.592 103.691 8.44267 104.219 8.144 104.688C7.856 105.157 7.41867 105.531 6.832 105.808C6.24533 106.075 5.52 106.208 4.656 106.208C3.888 106.208 3.216 106.08 2.64 105.824C2.064 105.568 1.6 105.195 1.248 104.704C0.896 104.213 0.672 103.637 0.576 102.976H2.32C2.40533 103.52 2.63467 103.957 3.008 104.288C3.392 104.608 3.936 104.768 4.64 104.768C5.36533 104.768 5.91467 104.619 6.288 104.32C6.66133 104.011 6.848 103.579 6.848 103.024C6.848 102.811 6.81067 102.608 6.736 102.416C6.672 102.224 6.544 102.048 6.352 101.888C6.17067 101.728 5.904 101.6 5.552 101.504C5.21067 101.408 4.76267 101.36 4.208 101.36H3.712V100.112C4.62933 100.112 5.39733 100.187 6.016 100.336C6.64533 100.485 7.14667 100.693 7.52 100.96C7.904 101.216 8.176 101.525 8.336 101.888C8.50667 102.251 8.592 102.656 8.592 103.104ZM13.8268 106.208C12.5468 106.208 11.5494 105.739 10.8348 104.8C10.1201 103.861 9.76275 102.549 9.76275 100.864C9.76275 99.1467 10.1201 97.824 10.8348 96.896C11.5601 95.968 12.5574 95.504 13.8268 95.504C15.1068 95.504 16.0988 95.9733 16.8028 96.912C17.5174 97.8507 17.8748 99.168 17.8748 100.864C17.8748 102.581 17.5174 103.904 16.8028 104.832C16.0881 105.749 15.0961 106.208 13.8268 106.208ZM13.8268 104.752C14.5628 104.752 15.1281 104.421 15.5228 103.76C15.9281 103.088 16.1308 102.123 16.1308 100.864C16.1308 99.616 15.9281 98.656 15.5228 97.984C15.1281 97.3013 14.5628 96.96 13.8268 96.96C13.0801 96.96 12.5041 97.296 12.0988 97.968C11.7041 98.6293 11.5068 99.5947 11.5068 100.864C11.5068 102.091 11.7094 103.045 12.1148 103.728C12.5201 104.411 13.0908 104.752 13.8268 104.752ZM21.1895 101.312C20.4002 101.312 19.7868 101.061 19.3495 100.56C18.9122 100.048 18.6935 99.3333 18.6935 98.416C18.6935 97.488 18.9122 96.7733 19.3495 96.272C19.7975 95.76 20.4108 95.504 21.1895 95.504C21.9788 95.504 22.5922 95.76 23.0295 96.272C23.4668 96.784 23.6855 97.4987 23.6855 98.416C23.6855 99.3333 23.4668 100.048 23.0295 100.56C22.5922 101.061 21.9788 101.312 21.1895 101.312ZM21.1895 100.16C21.5415 100.16 21.8082 100.011 21.9895 99.712C22.1815 99.4133 22.2775 98.9813 22.2775 98.416C22.2775 97.8613 22.1815 97.4347 21.9895 97.136C21.8082 96.8267 21.5415 96.672 21.1895 96.672C20.8375 96.672 20.5708 96.8213 20.3895 97.12C20.2082 97.4187 20.1175 97.8507 20.1175 98.416C20.1175 98.9707 20.2082 99.4027 20.3895 99.712C20.5815 100.011 20.8482 100.16 21.1895 100.16ZM20.4055 106L27.6055 95.712H29.2055L22.0215 106H20.4055ZM28.4055 106.144C27.6268 106.144 27.0135 105.888 26.5655 105.376C26.1282 104.864 25.9095 104.155 25.9095 103.248C25.9095 102.32 26.1282 101.6 26.5655 101.088C27.0135 100.576 27.6268 100.32 28.4055 100.32C29.1948 100.32 29.8082 100.581 30.2455 101.104C30.6828 101.616 30.9015 102.331 30.9015 103.248C30.9015 104.165 30.6828 104.88 30.2455 105.392C29.8082 105.893 29.1948 106.144 28.4055 106.144ZM28.4055 104.992C28.7575 104.992 29.0242 104.843 29.2055 104.544C29.3975 104.245 29.4935 103.813 29.4935 103.248C29.4935 102.683 29.3975 102.251 29.2055 101.952C29.0242 101.643 28.7575 101.488 28.4055 101.488C28.0535 101.488 27.7868 101.643 27.6055 101.952C27.4242 102.251 27.3335 102.683 27.3335 103.248C27.3335 103.813 27.4242 104.245 27.6055 104.544C27.7975 104.843 28.0642 104.992 28.4055 104.992Z" fill="white"/>
<path d="M326.671 7.56C326.671 8.264 326.522 8.89333 326.223 9.448C325.935 9.992 325.503 10.424 324.927 10.744C324.362 11.0533 323.652 11.208 322.799 11.208C322.02 11.208 321.348 11.0853 320.783 10.84C320.218 10.584 319.764 10.2213 319.423 9.752C319.082 9.28267 318.863 8.71733 318.767 8.056H320.479C320.575 8.58933 320.81 9.01067 321.183 9.32C321.567 9.61867 322.1 9.768 322.783 9.768C323.508 9.768 324.052 9.576 324.415 9.192C324.778 8.808 324.959 8.27467 324.959 7.592C324.959 7.304 324.922 7.02667 324.847 6.76C324.783 6.49333 324.66 6.25333 324.479 6.04C324.308 5.816 324.084 5.64533 323.807 5.528C323.53 5.4 323.183 5.336 322.767 5.336C322.404 5.336 322.09 5.384 321.823 5.48C321.556 5.576 321.332 5.69867 321.151 5.848C320.97 5.99733 320.82 6.16267 320.703 6.344L319.167 6.2L319.951 5.288C320.303 4.89333 320.708 4.568 321.167 4.312C321.626 4.04533 322.207 3.912 322.911 3.912C323.594 3.912 324.17 4.01333 324.639 4.216C325.119 4.408 325.508 4.67467 325.807 5.016C326.106 5.34667 326.324 5.736 326.463 6.184C326.602 6.62133 326.671 7.08 326.671 7.56ZM319.487 0.712H326.175V2.056H320.863L320.639 5.672L319.167 6.2L319.487 0.712ZM330.018 6.312C329.228 6.312 328.615 6.06133 328.178 5.56C327.74 5.048 327.522 4.33333 327.522 3.416C327.522 2.488 327.74 1.77333 328.178 1.272C328.626 0.76 329.239 0.504 330.018 0.504C330.807 0.504 331.42 0.76 331.858 1.272C332.295 1.784 332.514 2.49867 332.514 3.416C332.514 4.33333 332.295 5.048 331.858 5.56C331.42 6.06133 330.807 6.312 330.018 6.312ZM330.018 5.16C330.37 5.16 330.636 5.01067 330.818 4.712C331.01 4.41333 331.106 3.98133 331.106 3.416C331.106 2.86133 331.01 2.43467 330.818 2.136C330.636 1.82667 330.37 1.672 330.018 1.672C329.666 1.672 329.399 1.82133 329.218 2.12C329.036 2.41867 328.946 2.85067 328.946 3.416C328.946 3.97067 329.036 4.40267 329.218 4.712C329.41 5.01067 329.676 5.16 330.018 5.16ZM329.234 11L336.434 0.712H338.034L330.85 11H329.234ZM337.234 11.144C336.455 11.144 335.842 10.888 335.394 10.376C334.956 9.864 334.738 9.15467 334.738 8.248C334.738 7.32 334.956 6.6 335.394 6.088C335.842 5.576 336.455 5.32 337.234 5.32C338.023 5.32 338.636 5.58133 339.074 6.104C339.511 6.616 339.73 7.33067 339.73 8.248C339.73 9.16533 339.511 9.88 339.074 10.392C338.636 10.8933 338.023 11.144 337.234 11.144ZM337.234 9.992C337.586 9.992 337.852 9.84267 338.034 9.544C338.226 9.24533 338.322 8.81333 338.322 8.248C338.322 7.68267 338.226 7.25067 338.034 6.952C337.852 6.64267 337.586 6.488 337.234 6.488C336.882 6.488 336.615 6.64267 336.434 6.952C336.252 7.25067 336.162 7.68267 336.162 8.248C336.162 8.81333 336.252 9.24533 336.434 9.544C336.626 9.84267 336.892 9.992 337.234 9.992Z" fill="white"/>
<path d="M417.636 51H415.844V42.92C415.78 42.92 415.705 42.92 415.62 42.92C415.535 42.92 415.433 42.92 415.316 42.92H413.892V41.608H414.932C415.412 41.608 415.732 41.5493 415.892 41.432C416.052 41.3147 416.132 41.1333 416.132 40.888V40.712H417.636V51ZM413.892 51V49.672H419.572V51H413.892ZM429.271 43.64C429.271 44.1307 429.17 44.5573 428.967 44.92C428.764 45.2827 428.492 45.608 428.151 45.896C427.82 46.1733 427.452 46.4293 427.047 46.664C426.652 46.8987 426.252 47.1387 425.847 47.384C425.452 47.6187 425.084 47.8747 424.743 48.152C424.412 48.4187 424.146 48.7333 423.943 49.096C423.74 49.4587 423.639 49.88 423.639 50.36L421.959 50.552C421.959 49.8907 422.06 49.3253 422.263 48.856C422.466 48.376 422.732 47.9653 423.063 47.624C423.394 47.2827 423.756 46.984 424.151 46.728C424.546 46.472 424.94 46.2373 425.335 46.024C425.74 45.8107 426.108 45.592 426.439 45.368C426.77 45.144 427.036 44.8987 427.239 44.632C427.442 44.3547 427.543 44.0293 427.543 43.656C427.543 43.112 427.388 42.6907 427.079 42.392C426.77 42.0933 426.327 41.944 425.751 41.944C425.122 41.944 424.642 42.0987 424.311 42.408C423.98 42.7173 423.767 43.144 423.671 43.688H421.927C422.023 43.0267 422.231 42.4613 422.551 41.992C422.882 41.512 423.319 41.144 423.863 40.888C424.407 40.632 425.042 40.504 425.767 40.504C426.535 40.504 427.18 40.6427 427.703 40.92C428.226 41.1973 428.615 41.5707 428.871 42.04C429.138 42.5093 429.271 43.0427 429.271 43.64ZM421.959 51V50.552L423.303 49.672H429.351V51H421.959ZM433.018 46.312C432.228 46.312 431.615 46.0613 431.178 45.56C430.74 45.048 430.522 44.3333 430.522 43.416C430.522 42.488 430.74 41.7733 431.178 41.272C431.626 40.76 432.239 40.504 433.018 40.504C433.807 40.504 434.42 40.76 434.858 41.272C435.295 41.784 435.514 42.4987 435.514 43.416C435.514 44.3333 435.295 45.048 434.858 45.56C434.42 46.0613 433.807 46.312 433.018 46.312ZM433.018 45.16C433.37 45.16 433.636 45.0107 433.818 44.712C434.01 44.4133 434.106 43.9813 434.106 43.416C434.106 42.8613 434.01 42.4347 433.818 42.136C433.636 41.8267 433.37 41.672 433.018 41.672C432.666 41.672 432.399 41.8213 432.218 42.12C432.036 42.4187 431.946 42.8507 431.946 43.416C431.946 43.9707 432.036 44.4027 432.218 44.712C432.41 45.0107 432.676 45.16 433.018 45.16ZM432.234 51L439.434 40.712H441.034L433.85 51H432.234ZM440.234 51.144C439.455 51.144 438.842 50.888 438.394 50.376C437.956 49.864 437.738 49.1547 437.738 48.248C437.738 47.32 437.956 46.6 438.394 46.088C438.842 45.576 439.455 45.32 440.234 45.32C441.023 45.32 441.636 45.5813 442.074 46.104C442.511 46.616 442.73 47.3307 442.73 48.248C442.73 49.1653 442.511 49.88 442.074 50.392C441.636 50.8933 441.023 51.144 440.234 51.144ZM440.234 49.992C440.586 49.992 440.852 49.8427 441.034 49.544C441.226 49.2453 441.322 48.8133 441.322 48.248C441.322 47.6827 441.226 47.2507 441.034 46.952C440.852 46.6427 440.586 46.488 440.234 46.488C439.882 46.488 439.615 46.6427 439.434 46.952C439.252 47.2507 439.162 47.6827 439.162 48.248C439.162 48.8133 439.252 49.2453 439.434 49.544C439.626 49.8427 439.892 49.992 440.234 49.992Z" fill="white"/>
<path d="M467.911 142.816L467.959 144.208C467.116 144.208 466.375 144.021 465.735 143.648C465.095 143.264 464.599 142.677 464.247 141.888C463.895 141.088 463.719 140.08 463.719 138.864C463.719 137.147 464.092 135.824 464.839 134.896C465.586 133.968 466.615 133.504 467.927 133.504C468.908 133.504 469.73 133.776 470.391 134.32C471.063 134.864 471.516 135.643 471.751 136.656H470.007C469.836 136.091 469.564 135.669 469.191 135.392C468.828 135.104 468.386 134.96 467.863 134.96C467.042 134.96 466.412 135.296 465.975 135.968C465.538 136.629 465.319 137.595 465.319 138.864C465.319 139.803 465.404 140.565 465.575 141.152C465.756 141.728 466.039 142.149 466.423 142.416C466.807 142.683 467.303 142.816 467.911 142.816ZM467.959 144.208C467.308 144.208 466.738 144.069 466.247 143.792C465.756 143.504 465.372 143.099 465.095 142.576C464.818 142.053 464.679 141.44 464.679 140.736C464.679 140.021 464.828 139.403 465.127 138.88C465.426 138.357 465.831 137.957 466.343 137.68C466.855 137.403 467.431 137.264 468.071 137.264C468.818 137.264 469.468 137.403 470.023 137.68C470.578 137.947 471.01 138.336 471.319 138.848C471.639 139.349 471.799 139.963 471.799 140.688C471.799 141.413 471.634 142.043 471.303 142.576C470.972 143.109 470.514 143.515 469.927 143.792C469.351 144.069 468.695 144.208 467.959 144.208ZM467.911 142.768C468.562 142.768 469.079 142.597 469.463 142.256C469.847 141.904 470.039 141.403 470.039 140.752C470.039 140.315 469.948 139.947 469.767 139.648C469.586 139.339 469.335 139.104 469.015 138.944C468.706 138.773 468.338 138.688 467.911 138.688C467.26 138.688 466.738 138.869 466.343 139.232C465.948 139.584 465.751 140.091 465.751 140.752C465.751 141.381 465.948 141.877 466.343 142.24C466.738 142.592 467.26 142.768 467.911 142.768ZM475.018 139.312C474.228 139.312 473.615 139.061 473.178 138.56C472.74 138.048 472.522 137.333 472.522 136.416C472.522 135.488 472.74 134.773 473.178 134.272C473.626 133.76 474.239 133.504 475.018 133.504C475.807 133.504 476.42 133.76 476.858 134.272C477.295 134.784 477.514 135.499 477.514 136.416C477.514 137.333 477.295 138.048 476.858 138.56C476.42 139.061 475.807 139.312 475.018 139.312ZM475.018 138.16C475.37 138.16 475.636 138.011 475.818 137.712C476.01 137.413 476.106 136.981 476.106 136.416C476.106 135.861 476.01 135.435 475.818 135.136C475.636 134.827 475.37 134.672 475.018 134.672C474.666 134.672 474.399 134.821 474.218 135.12C474.036 135.419 473.946 135.851 473.946 136.416C473.946 136.971 474.036 137.403 474.218 137.712C474.41 138.011 474.676 138.16 475.018 138.16ZM474.234 144L481.434 133.712H483.034L475.85 144H474.234ZM482.234 144.144C481.455 144.144 480.842 143.888 480.394 143.376C479.956 142.864 479.738 142.155 479.738 141.248C479.738 140.32 479.956 139.6 480.394 139.088C480.842 138.576 481.455 138.32 482.234 138.32C483.023 138.32 483.636 138.581 484.074 139.104C484.511 139.616 484.73 140.331 484.73 141.248C484.73 142.165 484.511 142.88 484.074 143.392C483.636 143.893 483.023 144.144 482.234 144.144ZM482.234 142.992C482.586 142.992 482.852 142.843 483.034 142.544C483.226 142.245 483.322 141.813 483.322 141.248C483.322 140.683 483.226 140.251 483.034 139.952C482.852 139.643 482.586 139.488 482.234 139.488C481.882 139.488 481.615 139.643 481.434 139.952C481.252 140.251 481.162 140.683 481.162 141.248C481.162 141.813 481.252 142.245 481.434 142.544C481.626 142.843 481.892 142.992 482.234 142.992Z" fill="white"/>
<path d="M492.351 197.496C492.351 197.912 492.266 198.285 492.095 198.616C491.935 198.936 491.674 199.208 491.311 199.432C490.948 199.645 490.474 199.811 489.887 199.928C489.3 200.045 488.591 200.104 487.759 200.104V199.048H488.159C488.682 199.048 489.103 199.005 489.423 198.92C489.743 198.824 489.988 198.696 490.159 198.536C490.34 198.376 490.458 198.211 490.511 198.04C490.575 197.859 490.607 197.683 490.607 197.512C490.607 197.021 490.447 196.637 490.127 196.36C489.807 196.083 489.338 195.944 488.719 195.944C488.068 195.944 487.567 196.099 487.215 196.408C486.874 196.717 486.655 197.144 486.559 197.688H484.847C484.943 197.027 485.156 196.461 485.487 195.992C485.818 195.512 486.255 195.144 486.799 194.888C487.343 194.632 487.988 194.504 488.735 194.504C489.524 194.504 490.186 194.637 490.719 194.904C491.252 195.171 491.658 195.528 491.935 195.976C492.212 196.424 492.351 196.931 492.351 197.496ZM492.639 202.104C492.639 202.691 492.49 203.219 492.191 203.688C491.903 204.157 491.466 204.531 490.879 204.808C490.292 205.075 489.567 205.208 488.703 205.208C487.935 205.208 487.263 205.08 486.687 204.824C486.111 204.568 485.647 204.195 485.295 203.704C484.943 203.213 484.719 202.637 484.623 201.976H486.367C486.452 202.52 486.682 202.957 487.055 203.288C487.439 203.608 487.983 203.768 488.687 203.768C489.412 203.768 489.962 203.619 490.335 203.32C490.708 203.011 490.895 202.579 490.895 202.024C490.895 201.811 490.858 201.608 490.783 201.416C490.719 201.224 490.591 201.048 490.399 200.888C490.218 200.728 489.951 200.6 489.599 200.504C489.258 200.408 488.81 200.36 488.255 200.36H487.759V199.112C488.676 199.112 489.444 199.187 490.063 199.336C490.692 199.485 491.194 199.693 491.567 199.96C491.951 200.216 492.223 200.525 492.383 200.888C492.554 201.251 492.639 201.656 492.639 202.104ZM496.018 200.312C495.228 200.312 494.615 200.061 494.178 199.56C493.74 199.048 493.522 198.333 493.522 197.416C493.522 196.488 493.74 195.773 494.178 195.272C494.626 194.76 495.239 194.504 496.018 194.504C496.807 194.504 497.42 194.76 497.858 195.272C498.295 195.784 498.514 196.499 498.514 197.416C498.514 198.333 498.295 199.048 497.858 199.56C497.42 200.061 496.807 200.312 496.018 200.312ZM496.018 199.16C496.37 199.16 496.636 199.011 496.818 198.712C497.01 198.413 497.106 197.981 497.106 197.416C497.106 196.861 497.01 196.435 496.818 196.136C496.636 195.827 496.37 195.672 496.018 195.672C495.666 195.672 495.399 195.821 495.218 196.12C495.036 196.419 494.946 196.851 494.946 197.416C494.946 197.971 495.036 198.403 495.218 198.712C495.41 199.011 495.676 199.16 496.018 199.16ZM495.234 205L502.434 194.712H504.034L496.85 205H495.234ZM503.234 205.144C502.455 205.144 501.842 204.888 501.394 204.376C500.956 203.864 500.738 203.155 500.738 202.248C500.738 201.32 500.956 200.6 501.394 200.088C501.842 199.576 502.455 199.32 503.234 199.32C504.023 199.32 504.636 199.581 505.074 200.104C505.511 200.616 505.73 201.331 505.73 202.248C505.73 203.165 505.511 203.88 505.074 204.392C504.636 204.893 504.023 205.144 503.234 205.144ZM503.234 203.992C503.586 203.992 503.852 203.843 504.034 203.544C504.226 203.245 504.322 202.813 504.322 202.248C504.322 201.683 504.226 201.251 504.034 200.952C503.852 200.643 503.586 200.488 503.234 200.488C502.882 200.488 502.615 200.643 502.434 200.952C502.252 201.251 502.162 201.683 502.162 202.248C502.162 202.813 502.252 203.245 502.434 203.544C502.626 203.843 502.892 203.992 503.234 203.992Z" fill="white"/>
<path d="M463.636 307H461.844V298.92C461.78 298.92 461.705 298.92 461.62 298.92C461.535 298.92 461.433 298.92 461.316 298.92H459.892V297.608H460.932C461.412 297.608 461.732 297.549 461.892 297.432C462.052 297.315 462.132 297.133 462.132 296.888V296.712H463.636V307ZM459.892 307V305.672H465.572V307H459.892ZM475.271 299.64C475.271 300.131 475.17 300.557 474.967 300.92C474.764 301.283 474.492 301.608 474.151 301.896C473.82 302.173 473.452 302.429 473.047 302.664C472.652 302.899 472.252 303.139 471.847 303.384C471.452 303.619 471.084 303.875 470.743 304.152C470.412 304.419 470.146 304.733 469.943 305.096C469.74 305.459 469.639 305.88 469.639 306.36L467.959 306.552C467.959 305.891 468.06 305.325 468.263 304.856C468.466 304.376 468.732 303.965 469.063 303.624C469.394 303.283 469.756 302.984 470.151 302.728C470.546 302.472 470.94 302.237 471.335 302.024C471.74 301.811 472.108 301.592 472.439 301.368C472.77 301.144 473.036 300.899 473.239 300.632C473.442 300.355 473.543 300.029 473.543 299.656C473.543 299.112 473.388 298.691 473.079 298.392C472.77 298.093 472.327 297.944 471.751 297.944C471.122 297.944 470.642 298.099 470.311 298.408C469.98 298.717 469.767 299.144 469.671 299.688H467.927C468.023 299.027 468.231 298.461 468.551 297.992C468.882 297.512 469.319 297.144 469.863 296.888C470.407 296.632 471.042 296.504 471.767 296.504C472.535 296.504 473.18 296.643 473.703 296.92C474.226 297.197 474.615 297.571 474.871 298.04C475.138 298.509 475.271 299.043 475.271 299.64ZM467.959 307V306.552L469.303 305.672H475.351V307H467.959ZM479.018 302.312C478.228 302.312 477.615 302.061 477.178 301.56C476.74 301.048 476.522 300.333 476.522 299.416C476.522 298.488 476.74 297.773 477.178 297.272C477.626 296.76 478.239 296.504 479.018 296.504C479.807 296.504 480.42 296.76 480.858 297.272C481.295 297.784 481.514 298.499 481.514 299.416C481.514 300.333 481.295 301.048 480.858 301.56C480.42 302.061 479.807 302.312 479.018 302.312ZM479.018 301.16C479.37 301.16 479.636 301.011 479.818 300.712C480.01 300.413 480.106 299.981 480.106 299.416C480.106 298.861 480.01 298.435 479.818 298.136C479.636 297.827 479.37 297.672 479.018 297.672C478.666 297.672 478.399 297.821 478.218 298.12C478.036 298.419 477.946 298.851 477.946 299.416C477.946 299.971 478.036 300.403 478.218 300.712C478.41 301.011 478.676 301.16 479.018 301.16ZM478.234 307L485.434 296.712H487.034L479.85 307H478.234ZM486.234 307.144C485.455 307.144 484.842 306.888 484.394 306.376C483.956 305.864 483.738 305.155 483.738 304.248C483.738 303.32 483.956 302.6 484.394 302.088C484.842 301.576 485.455 301.32 486.234 301.32C487.023 301.32 487.636 301.581 488.074 302.104C488.511 302.616 488.73 303.331 488.73 304.248C488.73 305.165 488.511 305.88 488.074 306.392C487.636 306.893 487.023 307.144 486.234 307.144ZM486.234 305.992C486.586 305.992 486.852 305.843 487.034 305.544C487.226 305.245 487.322 304.813 487.322 304.248C487.322 303.683 487.226 303.251 487.034 302.952C486.852 302.643 486.586 302.488 486.234 302.488C485.882 302.488 485.615 302.643 485.434 302.952C485.252 303.251 485.162 303.683 485.162 304.248C485.162 304.813 485.252 305.245 485.434 305.544C485.626 305.843 485.892 305.992 486.234 305.992Z" fill="white"/>
<path d="M423.636 417H421.844V408.92C421.78 408.92 421.705 408.92 421.62 408.92C421.535 408.92 421.433 408.92 421.316 408.92H419.892V407.608H420.932C421.412 407.608 421.732 407.549 421.892 407.432C422.052 407.315 422.132 407.133 422.132 406.888V406.712H423.636V417ZM419.892 417V415.672H425.572V417H419.892ZM431.655 417.208C430.375 417.208 429.378 416.739 428.663 415.8C427.948 414.861 427.591 413.549 427.591 411.864C427.591 410.147 427.948 408.824 428.663 407.896C429.388 406.968 430.386 406.504 431.655 406.504C432.935 406.504 433.927 406.973 434.631 407.912C435.346 408.851 435.703 410.168 435.703 411.864C435.703 413.581 435.346 414.904 434.631 415.832C433.916 416.749 432.924 417.208 431.655 417.208ZM431.655 415.752C432.391 415.752 432.956 415.421 433.351 414.76C433.756 414.088 433.959 413.123 433.959 411.864C433.959 410.616 433.756 409.656 433.351 408.984C432.956 408.301 432.391 407.96 431.655 407.96C430.908 407.96 430.332 408.296 429.927 408.968C429.532 409.629 429.335 410.595 429.335 411.864C429.335 413.091 429.538 414.045 429.943 414.728C430.348 415.411 430.919 415.752 431.655 415.752ZM439.018 412.312C438.228 412.312 437.615 412.061 437.178 411.56C436.74 411.048 436.522 410.333 436.522 409.416C436.522 408.488 436.74 407.773 437.178 407.272C437.626 406.76 438.239 406.504 439.018 406.504C439.807 406.504 440.42 406.76 440.858 407.272C441.295 407.784 441.514 408.499 441.514 409.416C441.514 410.333 441.295 411.048 440.858 411.56C440.42 412.061 439.807 412.312 439.018 412.312ZM439.018 411.16C439.37 411.16 439.636 411.011 439.818 410.712C440.01 410.413 440.106 409.981 440.106 409.416C440.106 408.861 440.01 408.435 439.818 408.136C439.636 407.827 439.37 407.672 439.018 407.672C438.666 407.672 438.399 407.821 438.218 408.12C438.036 408.419 437.946 408.851 437.946 409.416C437.946 409.971 438.036 410.403 438.218 410.712C438.41 411.011 438.676 411.16 439.018 411.16ZM438.234 417L445.434 406.712H447.034L439.85 417H438.234ZM446.234 417.144C445.455 417.144 444.842 416.888 444.394 416.376C443.956 415.864 443.738 415.155 443.738 414.248C443.738 413.32 443.956 412.6 444.394 412.088C444.842 411.576 445.455 411.32 446.234 411.32C447.023 411.32 447.636 411.581 448.074 412.104C448.511 412.616 448.73 413.331 448.73 414.248C448.73 415.165 448.511 415.88 448.074 416.392C447.636 416.893 447.023 417.144 446.234 417.144ZM446.234 415.992C446.586 415.992 446.852 415.843 447.034 415.544C447.226 415.245 447.322 414.813 447.322 414.248C447.322 413.683 447.226 413.251 447.034 412.952C446.852 412.643 446.586 412.488 446.234 412.488C445.882 412.488 445.615 412.643 445.434 412.952C445.252 413.251 445.162 413.683 445.162 414.248C445.162 414.813 445.252 415.245 445.434 415.544C445.626 415.843 445.892 415.992 446.234 415.992Z" fill="white"/>
<path d="M122.808 446H121.016V437.92C120.952 437.92 120.877 437.92 120.792 437.92C120.707 437.92 120.605 437.92 120.488 437.92H119.064V436.608H120.104C120.584 436.608 120.904 436.549 121.064 436.432C121.224 436.315 121.304 436.133 121.304 435.888V435.712H122.808V446ZM119.064 446V444.672H124.744V446H119.064ZM130.827 446.208C129.547 446.208 128.549 445.739 127.835 444.8C127.12 443.861 126.763 442.549 126.763 440.864C126.763 439.147 127.12 437.824 127.835 436.896C128.56 435.968 129.557 435.504 130.827 435.504C132.107 435.504 133.099 435.973 133.803 436.912C134.517 437.851 134.875 439.168 134.875 440.864C134.875 442.581 134.517 443.904 133.803 444.832C133.088 445.749 132.096 446.208 130.827 446.208ZM130.827 444.752C131.563 444.752 132.128 444.421 132.523 443.76C132.928 443.088 133.131 442.123 133.131 440.864C133.131 439.616 132.928 438.656 132.523 437.984C132.128 437.301 131.563 436.96 130.827 436.96C130.08 436.96 129.504 437.296 129.099 437.968C128.704 438.629 128.507 439.595 128.507 440.864C128.507 442.091 128.709 443.045 129.115 443.728C129.52 444.411 130.091 444.752 130.827 444.752ZM138.19 441.312C137.4 441.312 136.787 441.061 136.35 440.56C135.912 440.048 135.694 439.333 135.694 438.416C135.694 437.488 135.912 436.773 136.35 436.272C136.798 435.76 137.411 435.504 138.19 435.504C138.979 435.504 139.592 435.76 140.03 436.272C140.467 436.784 140.686 437.499 140.686 438.416C140.686 439.333 140.467 440.048 140.03 440.56C139.592 441.061 138.979 441.312 138.19 441.312ZM138.19 440.16C138.542 440.16 138.808 440.011 138.99 439.712C139.182 439.413 139.278 438.981 139.278 438.416C139.278 437.861 139.182 437.435 138.99 437.136C138.808 436.827 138.542 436.672 138.19 436.672C137.838 436.672 137.571 436.821 137.39 437.12C137.208 437.419 137.118 437.851 137.118 438.416C137.118 438.971 137.208 439.403 137.39 439.712C137.582 440.011 137.848 440.16 138.19 440.16ZM137.406 446L144.606 435.712H146.206L139.022 446H137.406ZM145.406 446.144C144.627 446.144 144.014 445.888 143.566 445.376C143.128 444.864 142.91 444.155 142.91 443.248C142.91 442.32 143.128 441.6 143.566 441.088C144.014 440.576 144.627 440.32 145.406 440.32C146.195 440.32 146.808 440.581 147.246 441.104C147.683 441.616 147.902 442.331 147.902 443.248C147.902 444.165 147.683 444.88 147.246 445.392C146.808 445.893 146.195 446.144 145.406 446.144ZM145.406 444.992C145.758 444.992 146.024 444.843 146.206 444.544C146.398 444.245 146.494 443.813 146.494 443.248C146.494 442.683 146.398 442.251 146.206 441.952C146.024 441.643 145.758 441.488 145.406 441.488C145.054 441.488 144.787 441.643 144.606 441.952C144.424 442.251 144.334 442.683 144.334 443.248C144.334 443.813 144.424 444.245 144.606 444.544C144.798 444.843 145.064 444.992 145.406 444.992Z" fill="white"/>
<path d="M5.808 380H4.016V371.92C3.952 371.92 3.87733 371.92 3.792 371.92C3.70667 371.92 3.60533 371.92 3.488 371.92H2.064V370.608H3.104C3.584 370.608 3.904 370.549 4.064 370.432C4.224 370.315 4.304 370.133 4.304 369.888V369.712H5.808V380ZM2.064 380V378.672H7.744V380H2.064ZM17.4427 372.64C17.4427 373.131 17.3414 373.557 17.1388 373.92C16.9361 374.283 16.6641 374.608 16.3228 374.896C15.9921 375.173 15.6241 375.429 15.2188 375.664C14.8241 375.899 14.4241 376.139 14.0188 376.384C13.6241 376.619 13.2561 376.875 12.9148 377.152C12.5841 377.419 12.3174 377.733 12.1148 378.096C11.9121 378.459 11.8108 378.88 11.8108 379.36L10.1308 379.552C10.1308 378.891 10.2321 378.325 10.4348 377.856C10.6374 377.376 10.9041 376.965 11.2348 376.624C11.5654 376.283 11.9281 375.984 12.3228 375.728C12.7174 375.472 13.1121 375.237 13.5068 375.024C13.9121 374.811 14.2801 374.592 14.6108 374.368C14.9414 374.144 15.2081 373.899 15.4108 373.632C15.6134 373.355 15.7148 373.029 15.7148 372.656C15.7148 372.112 15.5601 371.691 15.2508 371.392C14.9414 371.093 14.4988 370.944 13.9227 370.944C13.2934 370.944 12.8134 371.099 12.4828 371.408C12.1521 371.717 11.9388 372.144 11.8428 372.688H10.0988C10.1948 372.027 10.4028 371.461 10.7228 370.992C11.0534 370.512 11.4908 370.144 12.0348 369.888C12.5788 369.632 13.2134 369.504 13.9388 369.504C14.7068 369.504 15.3521 369.643 15.8748 369.92C16.3974 370.197 16.7868 370.571 17.0428 371.04C17.3094 371.509 17.4427 372.043 17.4427 372.64ZM10.1308 380V379.552L11.4748 378.672H17.5228V380H10.1308ZM21.1895 375.312C20.4002 375.312 19.7868 375.061 19.3495 374.56C18.9122 374.048 18.6935 373.333 18.6935 372.416C18.6935 371.488 18.9122 370.773 19.3495 370.272C19.7975 369.76 20.4108 369.504 21.1895 369.504C21.9788 369.504 22.5922 369.76 23.0295 370.272C23.4668 370.784 23.6855 371.499 23.6855 372.416C23.6855 373.333 23.4668 374.048 23.0295 374.56C22.5922 375.061 21.9788 375.312 21.1895 375.312ZM21.1895 374.16C21.5415 374.16 21.8082 374.011 21.9895 373.712C22.1815 373.413 22.2775 372.981 22.2775 372.416C22.2775 371.861 22.1815 371.435 21.9895 371.136C21.8082 370.827 21.5415 370.672 21.1895 370.672C20.8375 370.672 20.5708 370.821 20.3895 371.12C20.2082 371.419 20.1175 371.851 20.1175 372.416C20.1175 372.971 20.2082 373.403 20.3895 373.712C20.5815 374.011 20.8482 374.16 21.1895 374.16ZM20.4055 380L27.6055 369.712H29.2055L22.0215 380H20.4055ZM28.4055 380.144C27.6268 380.144 27.0135 379.888 26.5655 379.376C26.1282 378.864 25.9095 378.155 25.9095 377.248C25.9095 376.32 26.1282 375.6 26.5655 375.088C27.0135 374.576 27.6268 374.32 28.4055 374.32C29.1948 374.32 29.8082 374.581 30.2455 375.104C30.6828 375.616 30.9015 376.331 30.9015 377.248C30.9015 378.165 30.6828 378.88 30.2455 379.392C29.8082 379.893 29.1948 380.144 28.4055 380.144ZM28.4055 378.992C28.7575 378.992 29.0242 378.843 29.2055 378.544C29.3975 378.245 29.4935 377.813 29.4935 377.248C29.4935 376.683 29.3975 376.251 29.2055 375.952C29.0242 375.643 28.7575 375.488 28.4055 375.488C28.0535 375.488 27.7868 375.643 27.6055 375.952C27.4242 376.251 27.3335 376.683 27.3335 377.248C27.3335 377.813 27.4242 378.245 27.6055 378.544C27.7975 378.843 28.0642 378.992 28.4055 378.992Z" fill="white"/>
<path d="M88 139L53 112.5H0" stroke="white"/>
<path d="M251 56L256.5 18.5H340" stroke="white"/>
<path d="M336 91L361.5 58.5H443" stroke="white"/>
<path d="M400.5 167.5L433 151H485" stroke="white"/>
<path d="M410 217L446 212H505.5" stroke="white"/>
<path d="M396.5 296L436.5 314H489" stroke="white"/>
<path d="M316 389L340.5 424H448.5" stroke="white"/>
<path d="M108 353L71 387.5H0" stroke="white"/>
<path d="M212 409L207 452.5H117.5" stroke="white"/>

<style>
#group_graph path {
    transition: all linear .25s;
    opacity: 0.9;
}

#group_graph path:nth-child(1):hover, [data-group="graph"] path:nth-child(1)[data-active="true"] {
    transform: scale(1.08) translate(-17px,-17px);
    opacity: 1;
}
#group_graph path:nth-child(2):hover, [data-group="graph"] path:nth-child(2)[data-active="true"] {
    transform: scale(1.08) translate(-16px,-18px);
    opacity: 1;
}
#group_graph path:nth-child(3):hover, [data-group="graph"] path:nth-child(3)[data-active="true"] {
    transform: scale(1.08) translate(-17px,-18px);
    opacity: 1;
}
#group_graph path:nth-child(4):hover, [data-group="graph"] path:nth-child(4)[data-active="true"] {
    transform: scale(1.08) translate(-16px,-18px);
    opacity: 1;
}
#group_graph path:nth-child(5):hover, [data-group="graph"] path:nth-child(5)[data-active="true"] {
    transform: scale(1.08) translate(-17px,-16px);
    opacity: 1;
}
#group_graph path:nth-child(6):hover, [data-group="graph"] path:nth-child(6)[data-active="true"] {
    transform: scale(1.08) translate(-17px,-17px);
    opacity: 1;
}
#group_graph path:nth-child(7):hover, [data-group="graph"] path:nth-child(7)[data-active="true"] {
    transform: scale(1.08) translate(-16px,-18px);
    opacity: 1;
}
#group_graph path:nth-child(8):hover, [data-group="graph"] path:nth-child(8)[data-active="true"] {
    transform: scale(1.08) translate(-15px,-17px);
    opacity: 1;
}
#group_graph path:nth-child(9):hover, 
[data-group="graph"] path:nth-child(9)[data-active="true"] {
    transform: scale(1.08) translate(-15px,-17px);
    opacity: 1;
}
</style>
</svg>
